<svg id="Layer_1" data-name="Layer 1" xmlns="http://www.w3.org/2000/svg" viewBox="0 0 793.56 82.12"><defs><style>.cls-1{fill:#0a3b81;}.cls-2{fill:#0a3b80;}.cls-3{fill:#0a3c81;}.cls-4{fill:#0b3b80;}.cls-5{fill:#0b3c80;}.cls-6{fill:#103e81;}.cls-7{fill:#103f81;}.cls-8{fill:#7bc04b;}.cls-9{fill:#0498d6;}</style></defs><path class="cls-1" d="M572.55,139.3H551.71c-4-9.9-8-19.82-12.2-30.39l-10.83,9.6c-1.75,6.71-3.56,13.67-5.4,20.74H504.43c6.34-24,12.61-47.63,19-71.57h18.9c-2.25,8.64-4.43,17-6.61,25.34l.64.59,28.5-26h23.51L553.92,98.62C560.13,112.19,566.2,125.45,572.55,139.3Z" transform="translate(-3.22 -58.94)"/><path class="cls-2" d="M269,139.18c6.47-24.31,12.74-47.89,19-71.51H307c-4.93,18.6-9.74,36.77-14.75,55.69h32.11a127.87,127.87,0,0,1-4.26,15.82Z" transform="translate(-3.22 -58.94)"/><path class="cls-3" d="M492.85,102.54H477.64c.13-3.28-1.41-5.3-4.69-5.47-3.89-.21-7.92-.59-10.09,3.84.64,3.56,3.61,4.14,6.19,4.85,3.57,1,7.25,1.54,10.87,2.35,9.19,2.06,12.51,8.39,8.94,17.08-3.79,9.24-11.6,13.26-20.69,15a40.94,40.94,0,0,1-19.33-.6c-8.33-2.44-11.31-7.56-9.67-16.83,5-1.05,10.1-.27,15.43-.49,1,2.09.54,4.9,3.08,6.21a10.82,10.82,0,0,0,5.91,1.15c5-.36,7.33-2.38,8.28-7.1-1-2.41-3.33-2.73-5.45-3.29-4.48-1.18-9.08-2-13.47-3.42-7.39-2.44-9.69-7.4-7.36-14.82a18.27,18.27,0,0,1,9.48-11.14c9.55-4.91,19.63-5.46,29.79-2.67C492.32,89.23,494.93,94.66,492.85,102.54Z" transform="translate(-3.22 -58.94)"/><path class="cls-4" d="M400.35,98.9c-2.42-1.18-5,0-7.72-1a60.89,60.89,0,0,1,2.67-10.57l8.53-.44c1.42-5.07,2.81-10,4.25-15.14,5.7-.68,11.19-.16,17.23-.36-1.35,5.38-2.56,10.18-3.81,15.12,3.33,1.39,6.77-.13,10.13,1.07-.88,3.41-1.75,6.79-2.74,10.6H418.64a260.6,260.6,0,0,0-7,26.34c2.6,3.56,6,1.9,9.19,2.87-.41,4-1.82,7.75-2.89,11.75a49.54,49.54,0,0,1-16.6.36c-6.16-1-8.66-4.13-8-10.4.85-7.79,3.66-15.13,5.38-22.71C399.31,103.87,400.58,101.51,400.35,98.9Z" transform="translate(-3.22 -58.94)"/><path class="cls-5" d="M777.77,139.2H760.43c6.4-24.1,12.7-47.83,19-71.64h17.32Z" transform="translate(-3.22 -58.94)"/><path class="cls-4" d="M676.65,102c-1.68-.2-2.77-.38-3.87-.46-9.81-.75-16.39,3.85-19,13.39-1.76,6.44-3.31,12.94-5.09,19.37-.44,1.57-.45,3.34-1.9,5a130.11,130.11,0,0,1-16.76,0L643.8,87.33A124.84,124.84,0,0,1,660,87.24c.85,2.5-1.15,4.49-.65,6.86,8-7.1,12.25-8.63,21-7.41C679.94,91.83,677.93,96.55,676.65,102Z" transform="translate(-3.22 -58.94)"/><path class="cls-3" d="M745.78,87.24H763.1c-4.6,17.41-9.12,34.49-13.72,51.86H732C736.64,121.75,741.2,104.53,745.78,87.24Z" transform="translate(-3.22 -58.94)"/><path class="cls-6" d="M439.59,80.51c1.21-4.35,2.38-8.59,3.58-12.88a55.81,55.81,0,0,1,13.84.2c-1.23,4.55-2.17,8.86-3.56,13-2.43,7.29-8.29,9.78-15.26,10.63-.68-1.66.54-2.67.27-3.89,2.35-1.85,6.19-1.61,6.72-5.47C443.76,80.48,441.58,82,439.59,80.51Z" transform="translate(-3.22 -58.94)"/><path class="cls-7" d="M764.78,80.54H747.61c1.16-4.43,2.23-8.49,3.38-12.91,5.58-.61,11.08-.17,17-.25A66.43,66.43,0,0,1,764.78,80.54Z" transform="translate(-3.22 -58.94)"/><path class="cls-1" d="M722.05,86.57c-8.5-1.64-17-1.49-25.24,1.68a22.36,22.36,0,0,0-14.16,15h15.67c6.35-7.66,12.2-8.62,17.62-2.61-1.77,4.94-2.48,5.62-6.87,6.4-6.39,1.14-12.93,1.41-19.19,3.25-7.16,2.11-12.6,6.13-14.94,13.61-3.13,10,1.39,16.5,11.84,17a32.14,32.14,0,0,0,19.44-5.23c1.45,1,.09,2.67,1.16,3.36H724c-.27-4.37.67-8.16,1.65-11.93,2.14-8.26,4.47-16.46,6.47-24.75C734.23,93.42,731.06,88.31,722.05,86.57ZM700.62,130c-4.31,1-6.29.14-8.88-3.82,2.47-10.54,12.38-7.55,20.18-11.24C710.16,122.77,707.83,128.34,700.62,130Z" transform="translate(-3.22 -58.94)"/><path class="cls-3" d="M385.6,117.54c1.71-5.36,2.6-10.35,1.83-15.59-1.37-9.28-6.66-14.64-15.88-16-21.35-3.17-42.28,15.48-41.55,37,.28,8.38,4.77,14.5,13,16.63,12,3.11,23.22,1.1,33-6.88a20.91,20.91,0,0,0,6.75-9H367.14c-4.69,4.56-10.14,7.65-16.8,4-3.79-2.09-3.87-5.89-2.82-10.21ZM359.86,98c7.26-2.37,11.78,1.46,10.89,9.71H350C352.37,103,355.15,99.58,359.86,98Z" transform="translate(-3.22 -58.94)"/><path class="cls-3" d="M611.54,85.73c-17.71-.84-33.56,11.75-37.24,29.56-3.15,15.26,5.27,25.6,20.81,25.57,18-.05,34-14.51,35.94-32.49C632.42,95.65,624.39,86.34,611.54,85.73Zm-4,37.54a12,12,0,0,1-7,4.21c-5.23,1-9-1.38-9.31-6.63-.39-7.54,2.06-14.17,7.85-19.28a10.49,10.49,0,0,1,3.31-1.94c6.57-2.44,11.17,1.11,11,9.49A25.66,25.66,0,0,1,607.58,123.27Z" transform="translate(-3.22 -58.94)"/><polygon class="cls-8" points="260.63 0 81.11 0 54.69 23.67 240.68 23.67 260.63 0"/><polygon class="cls-9" points="192.38 28.12 26.97 28.12 0 51.78 172.3 51.78 192.38 28.12"/><polygon class="cls-2" points="218.03 56.19 60.39 56.19 34.81 79.86 197.41 79.86 218.03 56.19"/></svg>